#!OML:ASF H:\Terrain\Patient Classification 1\Terrain2\Thursday\justin.ASF
:FULLY-SPECIFIED
:DEGREES
1688
root 31.8381 17.8023 20.9974 405.792 -86.1199 -41.1832
lowerback 5.71759 0.416127 0.391371
upperback 2.63378 0.523663 2.69248
thorax -0.516858 0.217513 2.51738
lowerneck -11.1627 -1.63034 -10.5201
upperneck 37.0624 -3.1566 5.16621
head 15.0036 -2.64345 3.41677
rclavicle -1.25234e-014 -3.85642e-014
rhumerus -34.6941 -2.87206 -83.0939
rradius 36.5084
rwrist -8.60975
rhand -20.7721 13.0394
rfingers 7.12502
rthumb 5.59443 -16.8667
lclavicle -1.25234e-014 -3.85642e-014
lhumerus -33.2251 3.78232 81.5777
lradius 36.9717
lwrist 5.23297
lhand -21.4429 20.6348
lfingers 7.12502
lthumb 4.94674 50.557
rfemur -16.3425 0.352789 22.2066
rtibia 40.041
rfoot -23.9653 -0.562384
rtoes 13.6239
lfemur -15.9079 2.69587 -15.0623
ltibia 35.8271
lfoot -19.0346 -12.6411
ltoes 11.5046
1689
root 31.8236 17.8141 20.9935 405.963 -85.8347 -41.4557
lowerback 5.89019 0.603323 0.789643
upperback 2.72809 0.791532 2.49131
thorax -0.518686 0.354529 2.06836
lowerneck -11.3249 -1.80865 -10.0513
upperneck 37.0019 -3.50321 5.15996
head 15.0371 -2.7134 3.27555
rclavicle 4.37326e-015 -3.18055e-015
rhumerus -34.5833 -3.31218 -83.4968
rradius 36.588
rwrist -9.05922
rhand -20.8603 13.1637
rfingers 7.12502
rthumb 5.50919 -16.7447
lclavicle 4.37326e-015 -3.18055e-015
lhumerus -32.9216 3.02822 81.4379
lradius 37.2131
lwrist 5.08019
lhand -21.0505 20.56
lfingers 7.12502
lthumb 5.32558 50.4731
rfemur -16.0704 -0.000478963 22.5411
rtibia 39.8927
rfoot -24.0426 -1.1995
rtoes 11.0692
lfemur -15.869 2.18985 -14.7912
ltibia 36.0737
lfoot -18.9031 -12.3766
ltoes 12.8602
1690
root 31.8124 17.7921 20.9839 406.812 -85.5984 -42.3393
lowerback 6.09965 1.24697 1.54279
upperback 2.81949 1.68834 1.81198
thorax -0.525603 0.813889 0.887534
lowerneck -11.5444 -2.36846 -8.65108
upperneck 36.7869 -4.69349 5.2834
head 15.0666 -2.98048 2.88409
rclavicle -4.12478e-015 -1.47101e-014
rhumerus -34.6651 -5.8725 -83.8756
rradius 36.7916
rwrist -8.48484
rhand -20.7727 13.1667
rfingers 7.12502
rthumb 5.59378 -16.7395
lclavicle -4.12478e-015 -1.47101e-014
lhumerus -32.09 0.470572 81.2107
lradius 37.416
lwrist 5.15733
lhand -20.8087 20.5778
lfingers 7.12502
lthumb 5.55905 50.4849
rfemur -15.955 -0.102136 22.8565
rtibia 39.783
rfoot -23.9386 -1.48888
rtoes 9.73139
lfemur -15.9778 2.13726 -14.5578
ltibia 36.3642
lfoot -18.8742 -12.4612
ltoes 12.8571
1691
root 31.7972 17.8206 20.9723 404.739 -85.3724 -40.2341
lowerback 6.0895 0.624733 0.777999
upperback 2.63694 0.827958 2.52059
thorax -0.724896 0.373618 2.10058
lowerneck -10.9909 -1.76588 -9.90321
upperneck 36.6161 -3.35981 4.87603
head 14.7499 -2.65268 3.14426
rclavicle 3.18055e-015 -6.75868e-015
rhumerus -34.7067 -3.25444 -83.7821
rradius 36.67
rwrist -8.12894
rhand -20.8022 12.9378
rfingers 7.12502
rthumb 5.56535 -16.9691
lclavicle 3.18055e-015 -6.75868e-015
lhumerus -33.0978 3.02681 81.3616
lradius 37.876
lwrist 4.92878
lhand -20.9222 20.6425
lfingers 7.12502
lthumb 5.44942 50.5525
rfemur -15.762 -0.225555 22.9741
rtibia 39.5302
rfoot -23.8744 -1.79745
rtoes 8.83838
lfemur -16.1631 1.92508 -14.3858
ltibia 36.8115
lfoot -18.4203 -13.2386
ltoes 18.0089
1692
root 31.7894 17.8048 20.9615 401.671 -85.1891 -37.1113
lowerback 6.17907 0.782991 0.822989
upperback 2.60322 1.0456 2.2491
thorax -0.810507 0.486223 1.77955
lowerneck -11.1146 -2.05355 -9.44625
upperneck 36.7128 -3.87534 4.80455
head 14.8641 -2.81648 2.95373
rclavicle -2.0276e-014 -1.07344e-014
rhumerus -34.853 -3.00692 -84.5789
rradius 37.2132
rwrist -10.1372
rhand -22.4806 11.4292
rfingers 7.12502
rthumb 3.94464 -18.514
lclavicle -2.0276e-014 -1.07344e-014
lhumerus -32.9519 2.07701 81.247
lradius 38.1782
lwrist 5.2886
lhand -21.0504 20.948
lfingers 7.12502
lthumb 5.32572 50.8611
rfemur -15.668 -0.325605 22.9485
rtibia 39.3619
rfoot -23.9332 -2.15406
rtoes 8.52575
lfemur -16.5551 2.51472 -14.5004
ltibia 37.2511
lfoot -17.9475 -13.7803
ltoes 18.5797
1693
root 31.7826 17.7803 20.9495 398.982 -85.0975 -34.3683
lowerback 6.23619 0.507928 0.226044
upperback 2.60318 0.647356 2.62852
thorax -0.842851 0.280518 2.53385
lowerneck -11.5357 -1.81754 -10.3346
upperneck 36.9811 -3.24183 4.79562
head 15.0545 -2.67698 3.21245
rclavicle 4.27387e-015 -1.98785e-015
rhumerus -34.6937 -1.07668 -84.5938
rradius 37.2763
rwrist -10.3453
rhand -22.5613 11.7109
rfingers 7.12502
rthumb 3.86679 -18.2337
lclavicle 4.27387e-015 -1.98785e-015
lhumerus -33.3458 3.33077 81.4198
lradius 38.6279
lwrist 5.21797
lhand -21.1584 20.8586
lfingers 7.12502
lthumb 5.22142 50.7742
rfemur -15.5151 -0.303148 22.8319
rtibia 39.028
rfoot -24.0432 -1.97934
rtoes 10.2059
lfemur -17.0081 2.94615 -14.6948
ltibia 37.8271
lfoot -17.9748 -13.8449
ltoes 17.022
